
<svg xmlns="http://www.w3.org/2000/svg" xmlns:xlink="http://www.w3.org/1999/xlink" width="500" zoomAndPan="magnify" viewBox="0 0 375 250" height="500" preserveAspectRatio="xMidYMid meet" version="1.0"><defs><g/><clipPath id="f24fa282b1"><path d="M 5 94 L 371 94 L 371 286 L 5 286 Z M 5 94 " clip-rule="nonzero"/></clipPath><clipPath id="5c6d58dcd7"><path d="M 60.414062 30.140625 L 371.707031 101.289062 L 314.128906 353.21875 L 2.832031 282.074219 Z M 60.414062 30.140625 " clip-rule="nonzero"/></clipPath><clipPath id="99fd1d5055"><path d="M 364.125 110.933594 C 333.042969 104.667969 329.136719 104.386719 324.195312 104.632812 C 318.878906 104.867188 312.203125 106.011719 307.53125 107.082031 C 304.066406 107.890625 301.96875 108.710938 298.457031 110.042969 C 293.445312 111.953125 287.148438 114.785156 280.679688 118.039062 C 272.640625 122.15625 261.292969 128.722656 253.96875 133.382812 C 248.605469 136.8125 245.726562 139.054688 240.570312 142.914062 C 233.03125 148.519531 224.589844 155.0625 213.527344 164.058594 C 195.34375 178.832031 158.9375 210.886719 142.402344 224.128906 C 133.820312 230.945312 129.144531 234.378906 122.398438 239.175781 C 115.65625 243.96875 109.171875 248.289062 101.792969 252.859375 C 93.539062 257.917969 83.957031 263.4375 74.792969 268.136719 C 65.894531 272.667969 56.375 277.589844 47.679688 280.5625 C 40.167969 283.042969 32.101562 284.941406 25.886719 285.429688 C 21.234375 285.738281 16.929688 285.210938 13.71875 284.554688 C 11.617188 284.074219 9.859375 283.75 8.484375 282.75 C 7.183594 281.765625 6.152344 279.925781 5.636719 278.511719 C 5.214844 277.347656 4.972656 276.070312 5.207031 275.054688 C 5.453125 273.964844 6.1875 272.757812 7.039062 272.039062 C 7.890625 271.316406 9.234375 270.785156 10.316406 270.726562 C 11.398438 270.667969 12.761719 271.054688 13.691406 271.648438 C 14.625 272.246094 15.496094 273.4375 15.804688 274.421875 C 16.171875 275.5 16.164062 276.871094 15.839844 277.941406 C 15.449219 278.996094 14.660156 280.113281 13.679688 280.730469 C 12.769531 281.363281 11.242188 281.699219 10.324219 281.71875 C 9.636719 281.714844 9.203125 281.613281 8.582031 281.320312 C 7.761719 280.902344 6.441406 279.992188 5.898438 279.027344 C 5.355469 278.066406 5.089844 276.554688 5.144531 275.652344 C 5.148438 274.964844 5.265625 274.457031 5.617188 273.925781 C 6.121094 273.050781 7.074219 271.894531 8.035156 271.351562 C 9 270.808594 10.421875 270.597656 11.527344 270.773438 C 12.632812 270.949219 13.894531 271.773438 14.59375 272.390625 C 15.089844 272.886719 15.027344 273.480469 15.617188 273.921875 C 16.878906 274.746094 20.476562 275.03125 22.894531 275.128906 C 25.246094 275.207031 27.132812 274.953125 29.816406 274.570312 C 33.832031 274.039062 38.902344 273.214844 44.339844 271.480469 C 51.921875 269.015625 61.992188 264.371094 70.675781 260.097656 C 79.613281 255.726562 89.015625 250.320312 97.164062 245.390625 C 104.421875 241.019531 110.191406 237.148438 117.347656 232.21875 C 125.714844 226.34375 133.46875 220.792969 144.109375 212.308594 C 161.035156 198.699219 191.128906 171.230469 208.121094 157.328125 C 219.003906 148.441406 227.800781 141.675781 235.503906 136.03125 C 240.910156 132.078125 244.453125 129.605469 249.566406 126.269531 C 255.390625 122.488281 262.128906 118.382812 268.535156 114.730469 C 274.851562 111.136719 281.40625 107.519531 287.789062 104.628906 C 293.746094 101.945312 300.5 99.445312 305.59375 97.859375 C 309.199219 96.777344 311.464844 96.226562 315.1875 95.625 C 320.246094 94.875 328.480469 94.238281 333.121094 94.304688 C 336.171875 94.316406 337.292969 94.417969 340.535156 94.929688 C 346.710938 95.960938 363.519531 98.886719 367.558594 101.261719 C 369.039062 102.132812 369.628906 102.878906 370.066406 103.972656 C 370.433594 105.046875 370.480469 106.507812 370.070312 107.636719 C 369.75 108.707031 368.722656 109.847656 367.761719 110.390625 C 366.722656 110.914062 364.125 110.933594 364.125 110.933594 " clip-rule="nonzero"/></clipPath><clipPath id="1702fc9204"><path d="M 24.714844 193.386719 L 316.757812 193.386719 L 316.757812 198.214844 L 24.714844 198.214844 Z M 24.714844 193.386719 " clip-rule="nonzero"/></clipPath><clipPath id="2c384130ad"><path d="M 46.253906 193.988281 C 210.644531 194.191406 280.128906 193.027344 300.414062 193.507812 C 306.945312 193.667969 309.742188 193.96875 312.308594 194.230469 C 314.171875 194.410156 315.105469 194.570312 315.804688 194.792969 C 316.738281 195.132812 316.503906 195.734375 315.570312 196.054688 C 314.871094 196.296875 313.9375 196.4375 312.074219 196.617188 C 309.277344 196.878906 304.144531 197.21875 299.714844 197.320312 C 295.285156 197.417969 288.988281 197.339844 285.257812 197.238281 C 282.460938 197.160156 280.828125 197.058594 278.960938 196.898438 C 276.164062 196.65625 272.667969 196.136719 271.5 195.816406 C 270.570312 195.574219 270.570312 195.414062 271.035156 195.171875 C 271.96875 194.832031 274.300781 194.308594 277.332031 194.027344 C 280.59375 193.75 285.957031 193.507812 290.386719 193.445312 C 295.050781 193.386719 300.882812 193.488281 304.84375 193.667969 C 309.042969 193.867188 313.007812 194.308594 314.871094 194.589844 C 316.269531 194.8125 316.738281 194.972656 316.738281 195.210938 C 316.738281 195.554688 315.804688 196.09375 313.472656 196.4375 C 310.90625 196.777344 308.574219 197.019531 302.046875 197.238281 C 283.625 197.902344 212.042969 198.0625 180.097656 198.183594 C 159.578125 198.242188 148.617188 198.203125 129.265625 198.140625 C 103.847656 198.0625 56.980469 198.121094 41.125 197.660156 C 34.597656 197.460938 31.332031 197.238281 28.535156 196.917969 C 25.734375 196.578125 24.335938 196.035156 24.804688 195.632812 C 25.503906 195.210938 28.300781 194.730469 32.03125 194.449219 C 35.527344 194.191406 46.253906 193.988281 46.253906 193.988281 " clip-rule="nonzero"/></clipPath></defs><g clip-path="url(#f24fa282b1)"><g clip-path="url(#5c6d58dcd7)"><g clip-path="url(#99fd1d5055)"><path fill="var(--main-dark)" d="M 58.738281 27.472656 L 375.101562 99.777344 L 316.363281 356.777344 L 0 284.472656 Z M 58.738281 27.472656 " fill-opacity="1" fill-rule="nonzero"/></g></g></g><g fill="var(--main-dark)" fill-opacity="1"><g transform="translate(31.338361, 188.596471)"><g><path d="M 31.472656 -20.367188 L 28.347656 -20.367188 L 22.550781 -5.082031 L 16.902344 -20.367188 L 15.207031 -20.367188 L 9.5625 -5.082031 L 3.765625 -20.367188 L 0.601562 -20.367188 L 8.46875 0 L 10.089844 0 L 16.074219 -15.660156 L 22.058594 0 L 23.679688 0 Z M 31.472656 -20.367188 "/></g></g></g><g fill="var(--main-dark)" fill-opacity="1"><g transform="translate(63.442598, 188.596471)"><g><path d="M 12.800781 -20.742188 C 10.089844 -20.742188 7.679688 -19.953125 5.984375 -18.523438 L 5.984375 -28.386719 L 2.859375 -28.386719 L 2.859375 0 L 5.984375 0 L 5.984375 -15.699219 C 7.605469 -17.089844 9.636719 -17.957031 12.308594 -17.957031 C 15.886719 -17.957031 18.410156 -15.773438 18.410156 -11.558594 L 18.410156 0 L 21.535156 0 L 21.535156 -11.558594 C 21.535156 -17.804688 18.21875 -20.742188 12.800781 -20.742188 Z M 12.800781 -20.742188 "/></g></g></g><g fill="var(--main-dark)" fill-opacity="1"><g transform="translate(87.417271, 188.596471)"><g><path d="M 22.324219 -20.367188 L 19.199219 -20.367188 L 19.199219 -18.484375 C 17.390625 -19.875 14.792969 -20.742188 12.121094 -20.742188 C 5.984375 -20.742188 1.769531 -15.847656 1.769531 -10.277344 C 1.769531 -4.667969 5.984375 0.226562 12.121094 0.226562 C 14.945312 0.226562 17.355469 -0.640625 19.199219 -2.03125 L 19.199219 0 L 22.324219 0 Z M 19.199219 -4.929688 C 17.617188 -3.464844 15.320312 -2.558594 12.609375 -2.558594 C 8.132812 -2.558594 4.78125 -6.097656 4.78125 -10.277344 C 4.78125 -14.457031 8.09375 -17.957031 12.609375 -17.957031 C 15.285156 -17.957031 17.582031 -17.054688 19.199219 -15.511719 Z M 19.199219 -4.929688 "/></g></g></g><g fill="var(--main-dark)" fill-opacity="1"><g transform="translate(112.596328, 188.596471)"><g><path d="M 7.339844 -17.769531 L 14.230469 -17.769531 L 14.230469 -20.367188 L 7.339844 -20.367188 L 7.339844 -28.386719 L 4.179688 -28.386719 L 4.179688 -20.367188 L 0.828125 -20.367188 L 0.828125 -17.769531 L 4.179688 -17.769531 L 4.179688 -5.910156 C 4.179688 -1.84375 6.8125 0.226562 10.050781 0.226562 C 12.308594 0.226562 13.664062 -0.226562 14.15625 -0.375 L 14.15625 -2.75 C 13.476562 -2.636719 12.574219 -2.484375 11.257812 -2.484375 C 8.621094 -2.484375 7.339844 -3.765625 7.339844 -7.527344 Z M 7.339844 -17.769531 "/></g></g></g><g fill="var(--main-dark)" fill-opacity="1"><g transform="translate(127.73441, 188.596471)"><g/></g></g><g fill="var(--main-dark)" fill-opacity="1"><g transform="translate(132.250832, 188.596471)"><g/></g></g><g fill="var(--main-dark)" fill-opacity="1"><g transform="translate(136.773485, 188.596471)"><g><path d="M 22.324219 -20.367188 L 19.199219 -20.367188 L 19.199219 -18.484375 C 17.390625 -19.875 14.792969 -20.742188 12.121094 -20.742188 C 5.984375 -20.742188 1.769531 -15.847656 1.769531 -10.277344 C 1.769531 -4.667969 5.984375 0.226562 12.121094 0.226562 C 14.945312 0.226562 17.355469 -0.640625 19.199219 -2.03125 L 19.199219 0 L 22.324219 0 Z M 19.199219 -4.929688 C 17.617188 -3.464844 15.320312 -2.558594 12.609375 -2.558594 C 8.132812 -2.558594 4.78125 -6.097656 4.78125 -10.277344 C 4.78125 -14.457031 8.09375 -17.957031 12.609375 -17.957031 C 15.285156 -17.957031 17.582031 -17.054688 19.199219 -15.511719 Z M 19.199219 -4.929688 "/></g></g></g><g fill="var(--main-dark)" fill-opacity="1"><g transform="translate(174.538688, 233.930478)"><g><path d="M 26.546875 -11.238281 C 26.546875 -11.238281 26.589844 -11.832031 26.589844 -12.246094 C 26.589844 -19.828125 22.023438 -25.175781 14.621094 -25.175781 C 7.21875 -25.175781 2.054688 -19.464844 2.054688 -12.425781 C 2.054688 -5.4375 7.21875 0.273438 14.621094 0.273438 C 19.371094 0.273438 23.347656 -1.644531 25.632812 -4.660156 L 23.117188 -6.671875 C 21.199219 -4.339844 18.367188 -3.0625 15.261719 -3.0625 C 10.644531 -3.0625 6.488281 -6.398438 5.847656 -11.238281 Z M 14.621094 -22.066406 C 19.785156 -22.066406 22.523438 -18.6875 22.890625 -14.210938 L 5.894531 -14.210938 C 6.488281 -18.640625 9.914062 -22.066406 14.621094 -22.066406 Z M 14.621094 -22.066406 "/></g></g></g><g fill="var(--main-dark)" fill-opacity="1"><g transform="translate(203.179815, 233.930478)"><g><path d="M 26.546875 -11.238281 C 26.546875 -11.238281 26.589844 -11.832031 26.589844 -12.246094 C 26.589844 -19.828125 22.023438 -25.175781 14.621094 -25.175781 C 7.21875 -25.175781 2.054688 -19.464844 2.054688 -12.425781 C 2.054688 -5.4375 7.21875 0.273438 14.621094 0.273438 C 19.371094 0.273438 23.347656 -1.644531 25.632812 -4.660156 L 23.117188 -6.671875 C 21.199219 -4.339844 18.367188 -3.0625 15.261719 -3.0625 C 10.644531 -3.0625 6.488281 -6.398438 5.847656 -11.238281 Z M 14.621094 -22.066406 C 19.785156 -22.066406 22.523438 -18.6875 22.890625 -14.210938 L 5.894531 -14.210938 C 6.488281 -18.640625 9.914062 -22.066406 14.621094 -22.066406 Z M 14.621094 -22.066406 "/></g></g></g><g fill="var(--main-dark)" fill-opacity="1"><g transform="translate(231.820941, 233.930478)"><g><path d="M 3.519531 -34.449219 L 3.519531 0 L 7.355469 0 L 7.355469 -34.449219 Z M 3.519531 -34.449219 "/></g></g></g><g fill="var(--main-dark)" fill-opacity="1"><g transform="translate(242.738375, 233.930478)"><g><path d="M 5.484375 -28.832031 C 6.761719 -28.832031 7.8125 -29.882812 7.8125 -31.207031 C 7.8125 -32.53125 6.761719 -33.535156 5.484375 -33.535156 C 4.15625 -33.535156 3.0625 -32.53125 3.0625 -31.207031 C 3.0625 -29.882812 4.15625 -28.832031 5.484375 -28.832031 Z M 3.5625 -24.71875 L 3.5625 0 L 7.355469 0 L 7.355469 -24.71875 Z M 3.5625 -24.71875 "/></g></g></g><g fill="var(--main-dark)" fill-opacity="1"><g transform="translate(253.701483, 233.930478)"><g><path d="M 15.535156 -25.175781 C 12.246094 -25.175781 9.320312 -24.171875 7.265625 -22.34375 L 7.265625 -24.71875 L 3.472656 -24.71875 L 3.472656 0 L 7.265625 0 L 7.265625 -19.007812 C 9.230469 -20.742188 11.695312 -21.792969 14.941406 -21.792969 C 19.328125 -21.792969 22.34375 -19.144531 22.34375 -14.027344 L 22.34375 0 L 26.132812 0 L 26.132812 -14.027344 C 26.132812 -21.613281 22.113281 -25.175781 15.535156 -25.175781 Z M 15.535156 -25.175781 "/></g></g></g><g fill="var(--main-dark)" fill-opacity="1"><g transform="translate(282.845085, 233.930478)"><g><path d="M 27.140625 -24.71875 L 23.347656 -24.71875 L 23.347656 -22.480469 C 21.15625 -24.125 18 -25.175781 14.757812 -25.175781 C 7.765625 -25.175781 2.054688 -19.921875 2.054688 -12.746094 C 2.054688 -5.574219 7.765625 -0.273438 14.757812 -0.273438 C 18.09375 -0.273438 20.972656 -1.234375 23.210938 -2.742188 L 23.164062 -1.964844 C 22.84375 1.917969 20.105469 5.574219 14.117188 5.574219 C 10.050781 5.574219 8.222656 5.027344 5.117188 4.113281 L 4.386719 6.945312 C 7.996094 7.996094 9.09375 8.542969 14.894531 8.542969 C 23.4375 8.542969 27.140625 2.605469 27.140625 -3.5625 Z M 5.800781 -12.703125 C 5.800781 -17.773438 10.007812 -21.792969 15.351562 -21.792969 C 18.550781 -21.792969 21.382812 -20.699219 23.347656 -18.871094 L 23.347656 -6.441406 C 21.429688 -4.660156 18.640625 -3.65625 15.351562 -3.65625 C 10.007812 -3.65625 5.800781 -7.539062 5.800781 -12.703125 Z M 5.800781 -12.703125 "/></g></g></g><g clip-path="url(#1702fc9204)"><g clip-path="url(#2c384130ad)"><path fill="var(--main-dark)" d="M 15.476562 192.644531 L 326.066406 192.644531 L 326.066406 198.984375 L 15.476562 198.984375 Z M 15.476562 192.644531 " fill-opacity="1" fill-rule="nonzero"/></g></g></svg>