<svg xmlns="http://www.w3.org/2000/svg" xmlns:xlink="http://www.w3.org/1999/xlink" width="500" zoomAndPan="magnify" viewBox="0 0 375 374.999991" height="500" preserveAspectRatio="xMidYMid meet" version="1.0"><defs><clipPath id="18dfc4ebdc"><path d="M 90.371094 102.316406 L 277 102.316406 L 277 253.390625 L 90.371094 253.390625 Z M 90.371094 102.316406 " clip-rule="nonzero"/></clipPath><clipPath id="a32ee4c210"><path d="M 273.976562 108.800781 C 255.449219 109.277344 253.1875 109.625 250.402344 110.410156 C 247.402344 111.234375 243.746094 112.757812 241.222656 113.976562 C 239.351562 114.890625 238.265625 115.628906 236.4375 116.847656 C 233.828125 118.585938 230.609375 121.023438 227.347656 123.71875 C 223.300781 127.113281 217.691406 132.332031 214.125 135.941406 C 211.515625 138.597656 210.167969 140.25 207.730469 143.121094 C 204.164062 147.296875 200.207031 152.125 195.074219 158.691406 C 186.632812 169.480469 170.0625 192.488281 162.363281 202.191406 C 158.359375 207.191406 156.140625 209.757812 152.921875 213.367188 C 149.703125 216.980469 146.570312 220.285156 142.960938 223.851562 C 138.917969 227.808594 134.175781 232.203125 129.5625 236.074219 C 125.082031 239.816406 120.300781 243.859375 115.730469 246.6875 C 111.773438 249.082031 107.421875 251.210938 103.945312 252.300781 C 101.335938 253.082031 98.8125 253.34375 96.898438 253.386719 C 95.636719 253.386719 94.59375 253.429688 93.679688 253.039062 C 92.808594 252.648438 91.980469 251.734375 91.503906 250.996094 C 91.113281 250.386719 90.808594 249.691406 90.808594 249.082031 C 90.808594 248.429688 91.070312 247.644531 91.460938 247.125 C 91.851562 246.601562 92.546875 246.121094 93.15625 245.949219 C 93.765625 245.773438 94.59375 245.820312 95.199219 246.035156 C 95.808594 246.253906 96.460938 246.820312 96.765625 247.339844 C 97.113281 247.90625 97.289062 248.6875 97.246094 249.34375 C 97.160156 249.996094 96.855469 250.734375 96.375 251.210938 C 95.941406 251.691406 95.113281 252.082031 94.59375 252.210938 C 94.199219 252.300781 93.9375 252.300781 93.546875 252.210938 C 93.027344 252.082031 92.15625 251.734375 91.722656 251.253906 C 91.285156 250.777344 90.9375 249.949219 90.851562 249.429688 C 90.765625 249.039062 90.765625 248.734375 90.894531 248.386719 C 91.070312 247.820312 91.460938 247.035156 91.9375 246.601562 C 92.417969 246.167969 93.199219 245.863281 93.851562 245.820312 C 94.503906 245.773438 95.332031 246.078125 95.808594 246.339844 C 96.15625 246.558594 96.203125 246.90625 96.59375 247.078125 C 97.417969 247.382812 99.507812 247.078125 100.898438 246.820312 C 102.246094 246.558594 103.292969 246.167969 104.769531 245.601562 C 106.988281 244.773438 109.773438 243.644531 112.644531 241.945312 C 116.644531 239.554688 121.777344 235.597656 126.171875 232.03125 C 130.695312 228.375 135.347656 224.070312 139.351562 220.199219 C 142.917969 216.761719 145.703125 213.804688 149.136719 210.0625 C 153.140625 205.625 156.835938 201.449219 161.796875 195.230469 C 169.667969 185.269531 183.242188 165.695312 191.113281 155.558594 C 196.160156 149.078125 200.292969 144.078125 203.945312 139.855469 C 206.511719 136.898438 208.207031 135.027344 210.6875 132.460938 C 213.515625 129.546875 216.820312 126.328125 219.996094 123.414062 C 223.128906 120.542969 226.390625 117.628906 229.652344 115.152344 C 232.699219 112.84375 236.222656 110.539062 238.917969 108.972656 C 240.832031 107.886719 242.050781 107.277344 244.09375 106.449219 C 246.878906 105.363281 251.488281 103.929688 254.144531 103.363281 C 255.882812 102.972656 256.535156 102.882812 258.449219 102.753906 C 262.101562 102.535156 272.0625 102.015625 274.671875 102.839844 C 275.628906 103.144531 276.066406 103.492188 276.457031 104.058594 C 276.804688 104.625 277.023438 105.449219 276.9375 106.144531 C 276.890625 106.796875 276.457031 107.582031 275.980469 108.015625 C 275.457031 108.453125 273.976562 108.800781 273.976562 108.800781 " clip-rule="nonzero"/></clipPath><clipPath id="f5fcde9502"><path d="M 128.355469 164 L 231.925781 164 L 231.925781 173.640625 L 128.355469 173.640625 Z M 128.355469 164 " clip-rule="nonzero"/></clipPath><clipPath id="1109955394"><path d="M 133.457031 166.75 C 191.207031 166.3125 206.429688 165.683594 215.128906 165.152344 C 220.003906 164.8125 223.753906 163.9375 226.378906 164.085938 C 227.878906 164.179688 229.003906 164.375 229.90625 164.8125 C 230.804688 165.296875 231.554688 166.21875 231.78125 166.847656 C 232.003906 167.429688 231.855469 167.960938 231.628906 168.449219 C 231.332031 168.980469 230.957031 169.464844 230.28125 169.804688 C 229.53125 170.289062 228.105469 170.96875 226.90625 170.773438 C 225.179688 170.53125 221.730469 167.914062 221.582031 166.847656 C 221.429688 166.121094 222.40625 165.394531 223.15625 164.957031 C 223.980469 164.519531 225.179688 164.179688 226.230469 164.085938 C 227.28125 164.035156 228.554688 164.179688 229.457031 164.617188 C 230.503906 165.101562 231.707031 166.460938 231.855469 167.332031 C 232.003906 168.058594 231.480469 168.835938 230.878906 169.367188 C 230.28125 169.949219 229.304688 170.484375 228.179688 170.628906 C 226.90625 170.824219 224.582031 170.628906 223.457031 170.046875 C 222.332031 169.464844 221.355469 168.109375 221.503906 167.1875 C 221.582031 166.265625 222.855469 165.003906 224.054688 164.519531 C 225.332031 164.085938 227.65625 164.035156 228.929688 164.421875 C 230.207031 164.8125 231.929688 166.847656 231.78125 166.945312 C 231.628906 167.089844 226.230469 164.328125 226.378906 164.085938 C 226.53125 163.9375 228.105469 164.179688 228.855469 164.375 C 229.53125 164.617188 230.28125 165.003906 230.804688 165.394531 C 231.253906 165.828125 231.628906 166.363281 231.78125 166.847656 C 231.929688 167.382812 231.929688 167.960938 231.628906 168.449219 C 231.179688 169.078125 230.429688 169.851562 229.304688 170.339844 C 227.878906 170.921875 226.304688 170.96875 223.230469 171.308594 C 214.53125 172.132812 187.980469 172.859375 172.082031 173.199219 C 158.355469 173.441406 139.304688 173.972656 133.457031 173.296875 C 131.730469 173.101562 130.90625 172.90625 130.082031 172.472656 C 129.40625 172.132812 129.03125 171.648438 128.730469 171.164062 C 128.429688 170.726562 128.28125 170.144531 128.429688 169.609375 C 128.65625 168.980469 129.253906 168.058594 130.082031 167.574219 C 130.980469 167.089844 133.457031 166.75 133.457031 166.75 " clip-rule="nonzero"/></clipPath><clipPath id="199671b072"><path d="M 52.296875 47.4375 L 308.046875 47.4375 L 308.046875 303.1875 L 52.296875 303.1875 Z M 52.296875 47.4375 " clip-rule="nonzero"/></clipPath></defs><g clip-path="url(#18dfc4ebdc)"><g clip-path="url(#a32ee4c210)"><path fill="#000000" d="M 89.066406 101.011719 L 278.777344 101.011719 L 278.777344 255.128906 L 89.066406 255.128906 Z M 89.066406 101.011719 " fill-opacity="1" fill-rule="nonzero"/></g></g><g clip-path="url(#f5fcde9502)"><g clip-path="url(#1109955394)"><path fill="#000000" d="M 125.429688 162.144531 L 234.847656 162.144531 L 234.847656 175.285156 L 125.429688 175.285156 Z M 125.429688 162.144531 " fill-opacity="1" fill-rule="nonzero"/></g></g><g clip-path="url(#199671b072)"><path fill="#000000" d="M 180.171875 303.1875 C 109.683594 303.1875 52.296875 245.800781 52.296875 175.3125 C 52.296875 104.824219 109.683594 47.4375 180.171875 47.4375 C 250.660156 47.4375 308.046875 104.824219 308.046875 175.3125 C 308.046875 245.800781 250.660156 303.1875 180.171875 303.1875 Z M 180.171875 49.328125 C 110.691406 49.328125 54.1875 105.832031 54.1875 175.3125 C 54.1875 244.792969 110.691406 301.300781 180.171875 301.300781 C 249.652344 301.300781 306.160156 244.792969 306.160156 175.3125 C 306.160156 105.832031 249.652344 49.328125 180.171875 49.328125 Z M 180.171875 49.328125 " fill-opacity="1" fill-rule="nonzero"/></g></svg>