<svg xmlns="http://www.w3.org/2000/svg" xmlns:xlink="http://www.w3.org/1999/xlink" width="500" zoomAndPan="magnify" viewBox="0 0 375 374.999991" height="500" preserveAspectRatio="xMidYMid meet" version="1.0"><defs><clipPath id="f3c4dc8ced"><path d="M 100 116 L 285 116 L 285 271 L 100 271 Z M 100 116 " clip-rule="nonzero"/></clipPath><clipPath id="73700545f4"><path d="M 97.417969 119.554688 L 284.058594 116.136719 L 286.824219 267.1875 L 100.183594 270.605469 Z M 97.417969 119.554688 " clip-rule="nonzero"/></clipPath><clipPath id="8490228f21"><path d="M 281.113281 122.675781 C 262.597656 123.496094 260.339844 123.882812 257.570312 124.71875 C 254.585938 125.597656 250.960938 127.1875 248.460938 128.453125 C 246.605469 129.398438 245.535156 130.160156 243.730469 131.410156 C 241.152344 133.199219 237.976562 135.691406 234.765625 138.449219 C 230.78125 141.914062 225.269531 147.234375 221.769531 150.910156 C 219.207031 153.613281 217.890625 155.289062 215.507812 158.203125 C 212.015625 162.445312 208.148438 167.34375 203.136719 174.003906 C 194.894531 184.945312 178.746094 208.253906 171.226562 218.09375 C 167.316406 223.167969 165.144531 225.777344 161.992188 229.445312 C 158.839844 233.113281 155.769531 236.476562 152.226562 240.109375 C 148.253906 244.140625 143.59375 248.621094 139.054688 252.574219 C 134.644531 256.398438 129.933594 260.527344 125.417969 263.441406 C 121.503906 265.902344 117.195312 268.113281 113.734375 269.265625 C 111.140625 270.097656 108.625 270.402344 106.710938 270.480469 C 105.449219 270.503906 104.40625 270.566406 103.484375 270.191406 C 102.609375 269.816406 101.765625 268.917969 101.273438 268.1875 C 100.871094 267.585938 100.554688 266.898438 100.542969 266.289062 C 100.53125 265.636719 100.777344 264.847656 101.160156 264.320312 C 101.542969 263.789062 102.226562 263.296875 102.835938 263.113281 C 103.441406 262.929688 104.265625 262.957031 104.878906 263.164062 C 105.492188 263.371094 106.15625 263.921875 106.46875 264.4375 C 106.828125 265 107.015625 265.777344 106.984375 266.429688 C 106.910156 267.085938 106.617188 267.828125 106.148438 268.316406 C 105.722656 268.804688 104.902344 269.210938 104.382812 269.351562 C 103.996094 269.445312 103.734375 269.449219 103.339844 269.367188 C 102.816406 269.25 101.941406 268.917969 101.496094 268.445312 C 101.050781 267.976562 100.6875 267.15625 100.59375 266.636719 C 100.5 266.246094 100.492188 265.941406 100.617188 265.589844 C 100.78125 265.023438 101.15625 264.230469 101.628906 263.789062 C 102.097656 263.34375 102.875 263.027344 103.527344 262.96875 C 104.179688 262.914062 105.011719 263.203125 105.496094 263.457031 C 105.847656 263.667969 105.894531 264.015625 106.289062 264.179688 C 107.121094 264.472656 109.203125 264.128906 110.589844 263.839844 C 111.933594 263.554688 112.972656 263.144531 114.441406 262.554688 C 116.644531 261.6875 119.40625 260.503906 122.246094 258.753906 C 126.203125 256.289062 131.261719 252.238281 135.589844 248.59375 C 140.046875 244.855469 144.621094 240.464844 148.550781 236.519531 C 152.054688 233.019531 154.78125 230.011719 158.148438 226.207031 C 162.070312 221.699219 165.691406 217.457031 170.535156 211.148438 C 178.222656 201.042969 191.433594 181.222656 199.121094 170.945312 C 204.046875 164.375 208.085938 159.296875 211.664062 155.011719 C 214.175781 152.007812 215.835938 150.105469 218.269531 147.496094 C 221.042969 144.527344 224.289062 141.25 227.410156 138.277344 C 230.488281 135.351562 233.695312 132.375 236.914062 129.839844 C 239.914062 127.476562 243.394531 125.109375 246.0625 123.492188 C 247.957031 122.371094 249.164062 121.738281 251.191406 120.875 C 253.957031 119.738281 258.539062 118.21875 261.183594 117.605469 C 262.914062 117.179688 263.566406 117.082031 265.476562 116.914062 C 269.125 116.632812 279.078125 115.925781 281.699219 116.707031 C 282.664062 116.992188 283.105469 117.332031 283.507812 117.890625 C 283.863281 118.449219 284.097656 119.273438 284.023438 119.96875 C 283.992188 120.621094 283.570312 121.414062 283.101562 121.855469 C 282.585938 122.300781 281.113281 122.675781 281.113281 122.675781 " clip-rule="nonzero"/></clipPath><clipPath id="2cc62b9c88"><path d="M 110.128906 187.835938 L 256.230469 187.835938 L 256.230469 192.75 L 110.128906 192.75 Z M 110.128906 187.835938 " clip-rule="nonzero"/></clipPath><clipPath id="53e621574b"><path d="M 117.324219 189.238281 C 198.804688 189.019531 220.285156 188.695312 232.558594 188.425781 C 239.4375 188.253906 244.730469 187.808594 248.433594 187.882812 C 250.546875 187.929688 252.136719 188.03125 253.40625 188.253906 C 254.675781 188.5 255.734375 188.96875 256.050781 189.289062 C 256.367188 189.585938 256.15625 189.855469 255.839844 190.105469 C 255.417969 190.375 254.886719 190.621094 253.933594 190.796875 C 252.875 191.042969 250.867188 191.386719 249.171875 191.289062 C 246.738281 191.164062 241.871094 189.832031 241.660156 189.289062 C 241.449219 188.917969 242.824219 188.546875 243.882812 188.328125 C 245.046875 188.105469 246.738281 187.929688 248.21875 187.882812 C 249.703125 187.855469 251.5 187.929688 252.769531 188.152344 C 254.253906 188.402344 255.945312 189.089844 256.15625 189.535156 C 256.367188 189.90625 255.628906 190.300781 254.78125 190.574219 C 253.933594 190.871094 252.558594 191.140625 250.972656 191.214844 C 249.171875 191.3125 245.894531 191.214844 244.304688 190.917969 C 242.71875 190.621094 241.34375 189.929688 241.554688 189.460938 C 241.660156 188.992188 243.457031 188.351562 245.152344 188.105469 C 246.949219 187.882812 250.230469 187.855469 252.03125 188.054688 C 253.828125 188.253906 256.261719 189.289062 256.050781 189.339844 C 255.839844 189.414062 248.21875 188.003906 248.433594 187.882812 C 248.644531 187.808594 250.867188 187.929688 251.925781 188.03125 C 252.875 188.152344 253.933594 188.351562 254.675781 188.546875 C 255.308594 188.769531 255.839844 189.042969 256.050781 189.289062 C 256.261719 189.5625 256.261719 189.855469 255.839844 190.105469 C 255.203125 190.425781 254.144531 190.820312 252.558594 191.066406 C 250.546875 191.363281 248.328125 191.386719 243.988281 191.5625 C 231.714844 191.980469 194.253906 192.351562 171.820312 192.523438 C 152.457031 192.648438 125.578125 192.917969 117.324219 192.574219 C 114.890625 192.472656 113.726562 192.375 112.5625 192.152344 C 111.609375 191.980469 111.082031 191.734375 110.65625 191.488281 C 110.234375 191.265625 110.023438 190.96875 110.234375 190.695312 C 110.550781 190.375 111.398438 189.90625 112.5625 189.660156 C 113.832031 189.414062 117.324219 189.238281 117.324219 189.238281 " clip-rule="nonzero"/></clipPath><clipPath id="3e04aea97d"><path d="M 56.082031 57.734375 L 322.332031 57.734375 L 322.332031 323.984375 L 56.082031 323.984375 Z M 56.082031 57.734375 " clip-rule="nonzero"/></clipPath></defs><g clip-path="url(#f3c4dc8ced)"><g clip-path="url(#73700545f4)"><g clip-path="url(#8490228f21)"><path fill="#000000" d="M 96.09375 118.277344 L 285.773438 114.804688 L 288.59375 268.890625 L 98.914062 272.363281 Z M 96.09375 118.277344 " fill-opacity="1" fill-rule="nonzero"/></g></g></g><g clip-path="url(#2cc62b9c88)"><g clip-path="url(#53e621574b)"><path fill="#000000" d="M 106 186.894531 L 260.386719 186.894531 L 260.386719 193.585938 L 106 193.585938 Z M 106 186.894531 " fill-opacity="1" fill-rule="nonzero"/></g></g><g clip-path="url(#3e04aea97d)"><path fill="#000000" d="M 189.207031 323.984375 C 115.660156 323.984375 56.082031 263.996094 56.082031 190.859375 C 56.082031 117.722656 115.660156 57.734375 189.207031 57.734375 C 262.753906 57.734375 322.332031 117.3125 322.332031 190.859375 C 322.332031 264.40625 262.34375 323.984375 189.207031 323.984375 Z M 189.207031 65.949219 C 120.179688 65.949219 64.296875 121.832031 64.296875 190.859375 C 64.296875 259.886719 120.179688 315.765625 189.207031 315.765625 C 258.234375 315.765625 314.113281 259.886719 314.113281 190.859375 C 314.113281 121.832031 257.824219 65.949219 189.207031 65.949219 Z M 189.207031 65.949219 " fill-opacity="1" fill-rule="nonzero"/></g></svg>