<svg width="500" height="500" viewBox="0 0 500 500" fill="none" xmlns="http://www.w3.org/2000/svg">
<mask id="mask0_6_40" style="mask-type:luminance" maskUnits="userSpaceOnUse" x="133" y="154" width="247" height="208">
<path d="M133.333 154.667H380V361.333H133.333V154.667Z" fill="white"/>
</mask>
<g mask="url(#mask0_6_40)">
<mask id="mask1_6_40" style="mask-type:luminance" maskUnits="userSpaceOnUse" x="129" y="154" width="254" height="207">
<path d="M129.891 159.406L378.745 154.849L382.432 356.25L133.578 360.807L129.891 159.406Z" fill="white"/>
</mask>
<g mask="url(#mask1_6_40)">
<mask id="mask2_6_40" style="mask-type:luminance" maskUnits="userSpaceOnUse" x="134" y="155" width="245" height="206">
<path d="M374.818 163.568C350.13 164.661 347.12 165.177 343.427 166.292C339.448 167.464 334.615 169.583 331.281 171.271C328.807 172.531 327.38 173.547 324.974 175.214C321.536 177.599 317.302 180.922 313.021 184.599C307.708 189.219 300.359 196.313 295.693 201.214C292.276 204.818 290.521 207.052 287.344 210.938C282.687 216.594 277.531 223.125 270.849 232.005C259.859 246.594 238.328 277.672 228.302 290.792C223.089 297.557 220.193 301.036 215.99 305.927C211.786 310.818 207.693 315.302 202.969 320.146C197.672 325.521 191.458 331.495 185.406 336.766C179.526 341.865 173.245 347.37 167.224 351.255C162.005 354.536 156.26 357.484 151.646 359.021C148.187 360.13 144.833 360.536 142.281 360.641C140.599 360.672 139.208 360.755 137.979 360.255C136.812 359.755 135.687 358.557 135.031 357.583C134.495 356.781 134.073 355.865 134.057 355.052C134.042 354.182 134.37 353.13 134.88 352.427C135.391 351.719 136.302 351.063 137.115 350.818C137.922 350.573 139.021 350.609 139.839 350.885C140.656 351.161 141.542 351.896 141.958 352.583C142.437 353.333 142.687 354.37 142.646 355.24C142.547 356.115 142.156 357.104 141.531 357.755C140.964 358.406 139.87 358.948 139.177 359.135C138.661 359.26 138.312 359.266 137.786 359.156C137.089 359 135.922 358.557 135.328 357.927C134.734 357.302 134.25 356.208 134.125 355.516C134 354.995 133.99 354.589 134.156 354.12C134.375 353.365 134.875 352.307 135.505 351.719C136.13 351.125 137.167 350.703 138.036 350.625C138.906 350.552 140.016 350.938 140.661 351.276C141.13 351.557 141.193 352.021 141.719 352.24C142.828 352.63 145.604 352.172 147.453 351.786C149.245 351.406 150.63 350.859 152.589 350.073C155.526 348.917 159.208 347.339 162.995 345.005C168.271 341.719 175.016 336.318 180.786 331.458C186.729 326.474 192.828 320.62 198.068 315.359C202.74 310.693 206.375 306.682 210.865 301.609C216.094 295.599 220.922 289.943 227.38 281.531C237.63 268.057 255.245 241.63 265.495 227.927C272.062 219.167 277.448 212.396 282.219 206.682C285.568 202.677 287.781 200.141 291.026 196.661C294.724 192.703 299.052 188.333 303.214 184.37C307.318 180.469 311.594 176.5 315.885 173.12C319.885 169.969 324.526 166.813 328.083 164.656C330.609 163.161 332.219 162.318 334.922 161.167C338.609 159.651 344.719 157.625 348.245 156.807C350.552 156.24 351.422 156.109 353.969 155.885C358.833 155.51 372.104 154.568 375.599 155.609C376.885 155.99 377.474 156.443 378.01 157.188C378.484 157.932 378.797 159.031 378.698 159.958C378.656 160.828 378.094 161.885 377.469 162.474C376.781 163.068 374.818 163.568 374.818 163.568Z" fill="white"/>
</mask>
<g mask="url(#mask2_6_40)">
<path d="M128.125 157.703L381.031 153.073L384.792 358.521L131.885 363.151L128.125 157.703Z" fill="black"/>
</g>
</g>
</g>
<mask id="mask3_6_40" style="mask-type:luminance" maskUnits="userSpaceOnUse" x="146" y="250" width="196" height="7">
<path d="M146.839 250.448H341.641V257H146.839V250.448Z" fill="white"/>
</mask>
<g mask="url(#mask3_6_40)">
<mask id="mask4_6_40" style="mask-type:luminance" maskUnits="userSpaceOnUse" x="146" y="250" width="196" height="7">
<path d="M156.433 252.318C265.073 252.026 293.714 251.594 310.078 251.234C319.25 251.005 326.308 250.411 331.245 250.51C334.063 250.573 336.183 250.708 337.875 251.005C339.568 251.333 340.979 251.958 341.401 252.385C341.823 252.781 341.542 253.141 341.12 253.474C340.558 253.833 339.849 254.161 338.578 254.396C337.167 254.724 334.49 255.182 332.229 255.052C328.985 254.885 322.495 253.109 322.214 252.385C321.933 251.891 323.766 251.396 325.177 251.104C326.729 250.807 328.985 250.573 330.959 250.51C332.938 250.474 335.334 250.573 337.026 250.87C339.005 251.203 341.261 252.12 341.542 252.714C341.823 253.208 340.839 253.734 339.709 254.099C338.578 254.495 336.745 254.854 334.63 254.953C332.229 255.083 327.86 254.953 325.74 254.557C323.625 254.161 321.792 253.24 322.073 252.615C322.214 251.99 324.61 251.135 326.87 250.807C329.266 250.51 333.641 250.474 336.042 250.74C338.438 251.005 341.683 252.385 341.401 252.453C341.12 252.552 330.959 250.672 331.245 250.51C331.526 250.411 334.49 250.573 335.901 250.708C337.167 250.87 338.578 251.135 339.568 251.396C340.412 251.693 341.12 252.057 341.401 252.385C341.683 252.75 341.683 253.141 341.12 253.474C340.271 253.901 338.86 254.427 336.745 254.755C334.063 255.151 331.104 255.182 325.318 255.417C308.953 255.974 259.005 256.469 229.094 256.698C203.276 256.865 167.438 257.224 156.433 256.766C153.188 256.63 151.636 256.5 150.084 256.203C148.813 255.974 148.11 255.646 147.542 255.318C146.979 255.021 146.698 254.625 146.979 254.26C147.401 253.833 148.531 253.208 150.084 252.88C151.776 252.552 156.433 252.318 156.433 252.318Z" fill="white"/>
</mask>
<g mask="url(#mask4_6_40)">
<path d="M141.333 249.193H347.182V258.115H141.333V249.193Z" fill="black"/>
</g>
</g>
<mask id="mask5_6_40" style="mask-type:luminance" maskUnits="userSpaceOnUse" x="74" y="76" width="356" height="356">
<path d="M74.776 76.9792H429.776V431.979H74.776V76.9792Z" fill="white"/>
</mask>
<g mask="url(#mask5_6_40)">
<path d="M252.276 431.979C154.214 431.979 74.776 351.995 74.776 254.479C74.776 156.964 154.214 76.9792 252.276 76.9792C350.339 76.9792 429.776 156.417 429.776 254.479C429.776 352.542 349.792 431.979 252.276 431.979ZM252.276 87.9323C160.24 87.9323 85.7292 162.443 85.7292 254.479C85.7292 346.516 160.24 421.021 252.276 421.021C344.312 421.021 418.818 346.516 418.818 254.479C418.818 162.443 343.766 87.9323 252.276 87.9323Z" fill="black"/>
</g>
</svg>
