<svg xmlns="http://www.w3.org/2000/svg" xmlns:xlink="http://www.w3.org/1999/xlink" width="500" zoomAndPan="magnify" viewBox="0 0 375 374.999991" height="500"  preserveAspectRatio="xMidYMid meet" version="1.0"><defs><clipPath id="16f0247839"><path d="M 13 50.117188 L 334.609375 50.117188 L 334.609375 310.601562 L 13 310.601562 Z M 13 50.117188 " clip-rule="nonzero"/></clipPath><clipPath id="23beedd1bf"><path d="M 329.324219 61.296875 C 297.375 62.121094 293.476562 62.722656 288.675781 64.070312 C 283.5 65.496094 277.199219 68.121094 272.851562 70.222656 C 269.625 71.796875 267.75 73.070312 264.601562 75.171875 C 260.101562 78.171875 254.550781 82.371094 248.925781 87.019531 C 241.949219 92.871094 232.273438 101.871094 226.125 108.097656 C 221.625 112.671875 219.300781 115.519531 215.101562 120.472656 C 208.949219 127.671875 202.125 135.996094 193.273438 147.320312 C 178.726562 165.921875 150.148438 205.597656 136.875 222.320312 C 129.976562 230.945312 126.148438 235.371094 120.601562 241.597656 C 115.050781 247.820312 109.648438 253.519531 103.425781 259.671875 C 96.449219 266.496094 88.273438 274.070312 80.324219 280.746094 C 72.601562 287.195312 64.351562 294.171875 56.476562 299.046875 C 49.648438 303.171875 42.148438 306.847656 36.148438 308.722656 C 31.648438 310.070312 27.300781 310.519531 24 310.597656 C 21.824219 310.597656 20.023438 310.671875 18.449219 309.996094 C 16.949219 309.320312 15.523438 307.746094 14.699219 306.472656 C 14.023438 305.421875 13.5 304.222656 13.5 303.171875 C 13.5 302.046875 13.949219 300.695312 14.625 299.796875 C 15.300781 298.894531 16.5 298.070312 17.550781 297.769531 C 18.601562 297.472656 20.023438 297.546875 21.074219 297.921875 C 22.125 298.296875 23.25 299.269531 23.773438 300.171875 C 24.375 301.144531 24.675781 302.496094 24.601562 303.621094 C 24.449219 304.746094 23.925781 306.019531 23.101562 306.847656 C 22.351562 307.671875 20.925781 308.347656 20.023438 308.570312 C 19.351562 308.722656 18.898438 308.722656 18.226562 308.570312 C 17.324219 308.347656 15.824219 307.746094 15.074219 306.921875 C 14.324219 306.097656 13.726562 304.671875 13.574219 303.769531 C 13.425781 303.097656 13.425781 302.570312 13.648438 301.972656 C 13.949219 300.996094 14.625 299.644531 15.449219 298.894531 C 16.273438 298.144531 17.625 297.621094 18.75 297.546875 C 19.875 297.472656 21.300781 297.996094 22.125 298.445312 C 22.726562 298.820312 22.800781 299.421875 23.476562 299.722656 C 24.898438 300.246094 28.5 299.722656 30.898438 299.269531 C 33.226562 298.820312 35.023438 298.144531 37.574219 297.171875 C 41.398438 295.746094 46.199219 293.796875 51.148438 290.871094 C 58.050781 286.746094 66.898438 279.921875 74.476562 273.769531 C 82.273438 267.472656 90.300781 260.046875 97.199219 253.371094 C 103.351562 247.445312 108.148438 242.347656 114.074219 235.894531 C 120.976562 228.246094 127.351562 221.046875 135.898438 210.320312 C 149.476562 193.144531 172.875 159.394531 186.449219 141.921875 C 195.148438 130.746094 202.273438 122.121094 208.574219 114.847656 C 213 109.746094 215.925781 106.519531 220.199219 102.097656 C 225.074219 97.070312 230.773438 91.519531 236.25 86.496094 C 241.648438 81.546875 247.273438 76.519531 252.898438 72.246094 C 258.148438 68.269531 264.226562 64.296875 268.875 61.597656 C 272.175781 59.722656 274.273438 58.671875 277.800781 57.246094 C 282.601562 55.371094 290.550781 52.894531 295.125 51.921875 C 298.125 51.246094 299.25 51.097656 302.550781 50.871094 C 308.851562 50.496094 326.023438 49.597656 330.523438 51.019531 C 332.175781 51.546875 332.925781 52.144531 333.601562 53.121094 C 334.199219 54.097656 334.574219 55.519531 334.425781 56.722656 C 334.351562 57.847656 333.601562 59.195312 332.773438 59.945312 C 331.875 60.695312 329.324219 61.296875 329.324219 61.296875 " clip-rule="nonzero"/></clipPath><clipPath id="97f50b84b0"><path d="M 152.9375 142.359375 L 256.46875 142.359375 L 256.46875 157.285156 L 152.9375 157.285156 Z M 152.9375 142.359375 " clip-rule="nonzero"/></clipPath><clipPath id="8f18c5fbb8"><path d="M 158.023438 146.625 C 215.773438 145.949219 231 144.976562 239.699219 144.148438 C 244.574219 143.625 248.324219 142.273438 250.949219 142.5 C 252.449219 142.648438 253.574219 142.949219 254.476562 143.625 C 255.375 144.375 256.125 145.800781 256.351562 146.773438 C 256.574219 147.675781 256.425781 148.5 256.199219 149.25 C 255.898438 150.074219 255.523438 150.824219 254.851562 151.351562 C 254.101562 152.101562 252.675781 153.148438 251.476562 152.851562 C 249.75 152.476562 246.300781 148.425781 246.148438 146.773438 C 246 145.648438 246.976562 144.523438 247.726562 143.851562 C 248.550781 143.175781 249.75 142.648438 250.800781 142.5 C 251.851562 142.425781 253.125 142.648438 254.023438 143.324219 C 255.074219 144.074219 256.273438 146.175781 256.425781 147.523438 C 256.574219 148.648438 256.050781 149.851562 255.449219 150.675781 C 254.851562 151.574219 253.875 152.398438 252.75 152.625 C 251.476562 152.925781 249.148438 152.625 248.023438 151.726562 C 246.898438 150.824219 245.925781 148.726562 246.074219 147.300781 C 246.148438 145.875 247.425781 143.925781 248.625 143.175781 C 249.898438 142.5 252.226562 142.425781 253.5 143.023438 C 254.773438 143.625 256.5 146.773438 256.351562 146.925781 C 256.199219 147.148438 250.800781 142.875 250.949219 142.5 C 251.101562 142.273438 252.675781 142.648438 253.425781 142.949219 C 254.101562 143.324219 254.851562 143.925781 255.375 144.523438 C 255.824219 145.199219 256.199219 146.023438 256.351562 146.773438 C 256.5 147.601562 256.5 148.5 256.199219 149.25 C 255.75 150.226562 255 151.425781 253.875 152.175781 C 252.449219 153.074219 250.875 153.148438 247.800781 153.675781 C 239.101562 154.949219 212.550781 156.074219 196.648438 156.601562 C 182.925781 156.976562 163.875 157.800781 158.023438 156.75 C 156.300781 156.449219 155.476562 156.148438 154.648438 155.476562 C 153.976562 154.949219 153.601562 154.199219 153.300781 153.449219 C 153 152.773438 152.851562 151.875 153 151.050781 C 153.226562 150.074219 153.824219 148.648438 154.648438 147.898438 C 155.550781 147.148438 158.023438 146.625 158.023438 146.625 " clip-rule="nonzero"/></clipPath></defs><g clip-path="url(#16f0247839)"><g clip-path="url(#23beedd1bf)"><path fill="var(--main-dark)" d="M 10.5 47.871094 L 337.605469 47.871094 L 337.605469 313.597656 L 10.5 313.597656 Z M 10.5 47.871094 " fill-opacity="1" fill-rule="nonzero"/></g></g><g clip-path="url(#97f50b84b0)"><g clip-path="url(#8f18c5fbb8)"><path fill="var(--main-dark)" d="M 150 139.5 L 259.40625 139.5 L 259.40625 159.824219 L 150 159.824219 Z M 150 139.5 " fill-opacity="1" fill-rule="nonzero"/></g></g></svg>