<svg xmlns="http://www.w3.org/2000/svg" xmlns:xlink="http://www.w3.org/1999/xlink" width="500" zoomAndPan="magnify" viewBox="0 0 375 374.999991" height="500" preserveAspectRatio="xMidYMid meet" version="1.0"><defs><g/><clipPath id="a54ca37420"><path d="M 4 77 L 371 77 L 371 306 L 4 306 Z M 4 77 " clip-rule="nonzero"/></clipPath><clipPath id="9963fb9591"><path d="M 40.3125 35.382812 L 371.699219 81.800781 L 334.132812 349.996094 L 2.742188 303.574219 Z M 40.3125 35.382812 " clip-rule="nonzero"/></clipPath><clipPath id="83178c9a39"><path d="M 364.648438 92.550781 C 331.632812 88.789062 327.53125 88.847656 322.394531 89.542969 C 316.859375 90.265625 309.996094 92.058594 305.214844 93.59375 C 301.664062 94.75 299.550781 95.792969 296.003906 97.5 C 290.941406 99.941406 284.621094 103.464844 278.15625 107.441406 C 270.132812 112.457031 258.871094 120.328125 251.644531 125.851562 C 246.351562 129.910156 243.546875 132.511719 238.507812 137 C 231.136719 143.527344 222.910156 151.113281 212.164062 161.5 C 194.5 178.550781 159.359375 215.277344 143.277344 230.585938 C 134.929688 238.46875 130.355469 242.472656 123.742188 248.082031 C 117.128906 253.691406 110.75 258.78125 103.453125 264.214844 C 95.285156 270.234375 85.777344 276.855469 76.628906 282.582031 C 67.746094 288.109375 58.246094 294.101562 49.433594 297.984375 C 41.8125 301.246094 33.558594 303.949219 27.113281 305.015625 C 22.285156 305.753906 17.742188 305.589844 14.332031 305.191406 C 12.09375 304.878906 10.230469 304.695312 8.703125 303.773438 C 7.257812 302.863281 6.015625 301.035156 5.351562 299.605469 C 4.808594 298.425781 4.441406 297.113281 4.59375 296.035156 C 4.753906 294.875 5.414062 293.550781 6.238281 292.722656 C 7.0625 291.890625 8.417969 291.214844 9.539062 291.058594 C 10.664062 290.898438 12.121094 291.183594 13.148438 291.71875 C 14.175781 292.257812 15.191406 293.425781 15.605469 294.425781 C 16.082031 295.515625 16.195312 296.949219 15.957031 298.097656 C 15.640625 299.234375 14.914062 300.472656 13.945312 301.203125 C 13.054688 301.941406 11.492188 302.433594 10.53125 302.535156 C 9.816406 302.589844 9.351562 302.527344 8.679688 302.273438 C 7.785156 301.914062 6.324219 301.078125 5.671875 300.121094 C 5.019531 299.164062 4.609375 297.609375 4.582031 296.660156 C 4.527344 295.945312 4.601562 295.40625 4.917969 294.820312 C 5.371094 293.859375 6.257812 292.566406 7.214844 291.914062 C 8.175781 291.261719 9.640625 290.914062 10.808594 291 C 11.976562 291.085938 13.371094 291.832031 14.152344 292.414062 C 14.71875 292.886719 14.707031 293.515625 15.359375 293.917969 C 16.75 294.664062 20.535156 294.644531 23.070312 294.527344 C 25.527344 294.398438 27.480469 293.964844 30.246094 293.328125 C 34.386719 292.414062 39.613281 291.097656 45.128906 288.800781 C 52.828125 285.546875 62.925781 279.796875 71.613281 274.558594 C 80.550781 269.195312 89.882812 262.707031 97.953125 256.832031 C 105.136719 251.617188 110.816406 247.058594 117.847656 241.273438 C 126.054688 234.390625 133.65625 227.898438 144.003906 218.089844 C 160.457031 202.363281 189.417969 170.988281 205.914062 154.953125 C 216.484375 144.703125 225.066406 136.851562 232.601562 130.269531 C 237.890625 125.65625 241.367188 122.757812 246.410156 118.820312 C 252.152344 114.347656 258.820312 109.457031 265.183594 105.070312 C 271.457031 100.753906 277.972656 96.390625 284.382812 92.800781 C 290.359375 89.464844 297.1875 86.25 302.363281 84.140625 C 306.03125 82.683594 308.347656 81.90625 312.179688 80.949219 C 317.394531 79.710938 325.9375 78.308594 330.785156 77.964844 C 333.972656 77.703125 335.152344 77.710938 338.582031 77.953125 C 345.125 78.476562 362.9375 80.027344 367.363281 82.144531 C 368.988281 82.921875 369.671875 83.648438 370.226562 84.75 C 370.703125 85.839844 370.886719 87.359375 370.558594 88.574219 C 370.316406 89.722656 369.351562 91.003906 368.394531 91.65625 C 367.359375 92.300781 364.648438 92.550781 364.648438 92.550781 " clip-rule="nonzero"/></clipPath><clipPath id="8445834f05"><path d="M 20.269531 192.074219 L 327.6875 192.074219 L 327.6875 195.742188 L 20.269531 195.742188 Z M 20.269531 192.074219 " clip-rule="nonzero"/></clipPath><clipPath id="4a6aabfe99"><path d="M 42.945312 192.53125 C 215.996094 192.683594 289.144531 191.800781 310.5 192.167969 C 317.371094 192.289062 320.316406 192.515625 323.019531 192.714844 C 324.980469 192.851562 325.964844 192.972656 326.699219 193.140625 C 327.679688 193.402344 327.4375 193.859375 326.453125 194.101562 C 325.71875 194.285156 324.734375 194.390625 322.773438 194.527344 C 319.828125 194.726562 314.425781 194.984375 309.761719 195.0625 C 305.097656 195.136719 298.472656 195.078125 294.542969 195 C 291.597656 194.941406 289.878906 194.863281 287.917969 194.742188 C 284.972656 194.558594 281.289062 194.164062 280.0625 193.917969 C 279.078125 193.734375 279.078125 193.613281 279.570312 193.429688 C 280.554688 193.171875 283.007812 192.777344 286.199219 192.5625 C 289.636719 192.347656 295.28125 192.167969 299.945312 192.121094 C 304.855469 192.074219 310.988281 192.152344 315.164062 192.289062 C 319.582031 192.441406 323.753906 192.777344 325.71875 192.988281 C 327.191406 193.15625 327.679688 193.277344 327.679688 193.460938 C 327.679688 193.71875 326.699219 194.132812 324.246094 194.390625 C 321.546875 194.648438 319.089844 194.832031 312.21875 195 C 292.824219 195.503906 217.46875 195.625 183.839844 195.714844 C 162.238281 195.761719 150.703125 195.730469 130.328125 195.6875 C 103.574219 195.625 54.238281 195.671875 37.546875 195.320312 C 30.671875 195.167969 27.234375 195 24.289062 194.757812 C 21.34375 194.496094 19.871094 194.085938 20.363281 193.78125 C 21.097656 193.460938 24.046875 193.097656 27.972656 192.882812 C 31.65625 192.683594 42.945312 192.53125 42.945312 192.53125 " clip-rule="nonzero"/></clipPath></defs><rect x="-37.5" width="450" fill="#ffffff" y="-37.499999" height="449.999989" fill-opacity="1"/><rect x="-37.5" width="450" fill="#ffffff" y="-37.499999" height="449.999989" fill-opacity="1"/><g clip-path="url(#a54ca37420)"><g clip-path="url(#9963fb9591)"><g clip-path="url(#83178c9a39)"><path fill="#030352" d="M 38.324219 32.746094 L 375.105469 79.921875 L 336.785156 353.507812 L 0 306.335938 Z M 38.324219 32.746094 " fill-opacity="1" fill-rule="nonzero"/></g></g></g><g fill="#030352" fill-opacity="1"><g transform="translate(12.727635, 187.243171)"><g><path d="M 38.128906 -24.671875 L 34.34375 -24.671875 L 27.320312 -6.15625 L 20.476562 -24.671875 L 18.425781 -24.671875 L 11.585938 -6.15625 L 4.5625 -24.671875 L 0.730469 -24.671875 L 10.261719 0 L 12.222656 0 L 19.472656 -18.972656 L 26.726562 0 L 28.6875 0 Z M 38.128906 -24.671875 "/></g></g></g><g fill="#030352" fill-opacity="1"><g transform="translate(51.629736, 187.243171)"><g><path d="M 15.507812 -25.128906 C 12.222656 -25.128906 9.304688 -24.171875 7.25 -22.4375 L 7.25 -34.386719 L 3.464844 -34.386719 L 3.464844 0 L 7.25 0 L 7.25 -19.019531 C 9.210938 -20.707031 11.675781 -21.753906 14.914062 -21.753906 C 19.246094 -21.753906 22.300781 -19.109375 22.300781 -14 L 22.300781 0 L 26.085938 0 L 26.085938 -14 C 26.085938 -21.574219 22.074219 -25.128906 15.507812 -25.128906 Z M 15.507812 -25.128906 "/></g></g></g><g fill="#030352" fill-opacity="1"><g transform="translate(80.680893, 187.243171)"><g><path d="M 27.046875 -24.671875 L 23.261719 -24.671875 L 23.261719 -22.394531 C 21.070312 -24.082031 17.925781 -25.128906 14.6875 -25.128906 C 7.25 -25.128906 2.144531 -19.199219 2.144531 -12.449219 C 2.144531 -5.65625 7.25 0.273438 14.6875 0.273438 C 18.105469 0.273438 21.023438 -0.773438 23.261719 -2.460938 L 23.261719 0 L 27.046875 0 Z M 23.261719 -5.976562 C 21.34375 -4.195312 18.5625 -3.101562 15.277344 -3.101562 C 9.851562 -3.101562 5.792969 -7.386719 5.792969 -12.449219 C 5.792969 -17.511719 9.804688 -21.753906 15.277344 -21.753906 C 18.515625 -21.753906 21.300781 -20.660156 23.261719 -18.789062 Z M 23.261719 -5.976562 "/></g></g></g><g fill="#030352" fill-opacity="1"><g transform="translate(111.191448, 187.243171)"><g><path d="M 8.894531 -21.527344 L 17.238281 -21.527344 L 17.238281 -24.671875 L 8.894531 -24.671875 L 8.894531 -34.386719 L 5.0625 -34.386719 L 5.0625 -24.671875 L 1.003906 -24.671875 L 1.003906 -21.527344 L 5.0625 -21.527344 L 5.0625 -7.160156 C 5.0625 -2.234375 8.253906 0.273438 12.175781 0.273438 C 14.914062 0.273438 16.554688 -0.273438 17.148438 -0.457031 L 17.148438 -3.328125 C 16.328125 -3.191406 15.234375 -3.011719 13.636719 -3.011719 C 10.445312 -3.011719 8.894531 -4.5625 8.894531 -9.121094 Z M 8.894531 -21.527344 "/></g></g></g><g fill="#030352" fill-opacity="1"><g transform="translate(129.533424, 187.243171)"><g/></g></g><g fill="#030352" fill-opacity="1"><g transform="translate(135.006172, 187.243171)"><g/></g></g><g fill="#030352" fill-opacity="1"><g transform="translate(140.480444, 187.243171)"><g><path d="M 27.046875 -24.671875 L 23.261719 -24.671875 L 23.261719 -22.394531 C 21.070312 -24.082031 17.925781 -25.128906 14.6875 -25.128906 C 7.25 -25.128906 2.144531 -19.199219 2.144531 -12.449219 C 2.144531 -5.65625 7.25 0.273438 14.6875 0.273438 C 18.105469 0.273438 21.023438 -0.773438 23.261719 -2.460938 L 23.261719 0 L 27.046875 0 Z M 23.261719 -5.976562 C 21.34375 -4.195312 18.5625 -3.101562 15.277344 -3.101562 C 9.851562 -3.101562 5.792969 -7.386719 5.792969 -12.449219 C 5.792969 -17.511719 9.804688 -21.753906 15.277344 -21.753906 C 18.515625 -21.753906 21.300781 -20.660156 23.261719 -18.789062 Z M 23.261719 -5.976562 "/></g></g></g><g fill="#030352" fill-opacity="1"><g transform="translate(214.357656, 186.721889)"><g><path d="M 27.0625 -11.457031 C 27.0625 -11.457031 27.109375 -12.0625 27.109375 -12.484375 C 27.109375 -20.214844 22.449219 -25.664062 14.90625 -25.664062 C 7.359375 -25.664062 2.097656 -19.84375 2.097656 -12.667969 C 2.097656 -5.542969 7.359375 0.28125 14.90625 0.28125 C 19.75 0.28125 23.800781 -1.675781 26.128906 -4.75 L 23.570312 -6.800781 C 21.613281 -4.425781 18.726562 -3.121094 15.558594 -3.121094 C 10.851562 -3.121094 6.613281 -6.519531 5.960938 -11.457031 Z M 14.90625 -22.496094 C 20.167969 -22.496094 22.964844 -19.050781 23.335938 -14.484375 L 6.007812 -14.484375 C 6.613281 -19.003906 10.109375 -22.496094 14.90625 -22.496094 Z M 14.90625 -22.496094 "/></g></g></g><g fill="#030352" fill-opacity="1"><g transform="translate(243.561833, 186.721889)"><g><path d="M 27.0625 -11.457031 C 27.0625 -11.457031 27.109375 -12.0625 27.109375 -12.484375 C 27.109375 -20.214844 22.449219 -25.664062 14.90625 -25.664062 C 7.359375 -25.664062 2.097656 -19.84375 2.097656 -12.667969 C 2.097656 -5.542969 7.359375 0.28125 14.90625 0.28125 C 19.75 0.28125 23.800781 -1.675781 26.128906 -4.75 L 23.570312 -6.800781 C 21.613281 -4.425781 18.726562 -3.121094 15.558594 -3.121094 C 10.851562 -3.121094 6.613281 -6.519531 5.960938 -11.457031 Z M 14.90625 -22.496094 C 20.167969 -22.496094 22.964844 -19.050781 23.335938 -14.484375 L 6.007812 -14.484375 C 6.613281 -19.003906 10.109375 -22.496094 14.90625 -22.496094 Z M 14.90625 -22.496094 "/></g></g></g><g fill="#030352" fill-opacity="1"><g transform="translate(272.76601, 186.721889)"><g><path d="M 3.585938 -35.121094 L 3.585938 0 L 7.5 0 L 7.5 -35.121094 Z M 3.585938 -35.121094 "/></g></g></g><g fill="#030352" fill-opacity="1"><g transform="translate(283.898061, 186.721889)"><g><path d="M 5.589844 -29.390625 C 6.894531 -29.390625 7.964844 -30.460938 7.964844 -31.8125 C 7.964844 -33.164062 6.894531 -34.1875 5.589844 -34.1875 C 4.238281 -34.1875 3.121094 -33.164062 3.121094 -31.8125 C 3.121094 -30.460938 4.238281 -29.390625 5.589844 -29.390625 Z M 3.632812 -25.199219 L 3.632812 0 L 7.5 0 L 7.5 -25.199219 Z M 3.632812 -25.199219 "/></g></g></g><g fill="#030352" fill-opacity="1"><g transform="translate(295.076702, 186.721889)"><g><path d="M 15.835938 -25.664062 C 12.484375 -25.664062 9.503906 -24.640625 7.40625 -22.777344 L 7.40625 -25.199219 L 3.539062 -25.199219 L 3.539062 0 L 7.40625 0 L 7.40625 -19.375 C 9.410156 -21.148438 11.925781 -22.21875 15.230469 -22.21875 C 19.703125 -22.21875 22.777344 -19.515625 22.777344 -14.300781 L 22.777344 0 L 26.644531 0 L 26.644531 -14.300781 C 26.644531 -22.03125 22.542969 -25.664062 15.835938 -25.664062 Z M 15.835938 -25.664062 "/></g></g></g><g fill="#030352" fill-opacity="1"><g transform="translate(324.793241, 186.721889)"><g><path d="M 27.667969 -25.199219 L 23.800781 -25.199219 L 23.800781 -22.917969 C 21.566406 -24.59375 18.351562 -25.664062 15.046875 -25.664062 C 7.917969 -25.664062 2.097656 -20.308594 2.097656 -12.996094 C 2.097656 -5.683594 7.917969 -0.28125 15.046875 -0.28125 C 18.445312 -0.28125 21.378906 -1.257812 23.664062 -2.792969 L 23.617188 -2.003906 C 23.289062 1.957031 20.496094 5.683594 14.394531 5.683594 C 10.246094 5.683594 8.382812 5.125 5.21875 4.191406 L 4.472656 7.078125 C 8.152344 8.152344 9.269531 8.710938 15.183594 8.710938 C 23.894531 8.710938 27.667969 2.65625 27.667969 -3.632812 Z M 5.914062 -12.949219 C 5.914062 -18.121094 10.199219 -22.21875 15.652344 -22.21875 C 18.910156 -22.21875 21.800781 -21.101562 23.800781 -19.238281 L 23.800781 -6.566406 C 21.84375 -4.75 19.003906 -3.726562 15.652344 -3.726562 C 10.199219 -3.726562 5.914062 -7.683594 5.914062 -12.949219 Z M 5.914062 -12.949219 "/></g></g></g><g clip-path="url(#8445834f05)"><g clip-path="url(#4a6aabfe99)"><path fill="#030352" d="M 10.542969 191.511719 L 337.507812 191.511719 L 337.507812 196.324219 L 10.542969 196.324219 Z M 10.542969 191.511719 " fill-opacity="1" fill-rule="nonzero"/></g></g></svg>